<svg width="256" height="56" viewBox="0 0 256 56" fill="none" xmlns="http://www.w3.org/2000/svg">
<g id="SNEAKERS" filter="url(#filter0_f_201_5)">
<path d="M28.264 28.984L28.9711 28.2769L28.9711 28.2769L28.264 28.984ZM28.264 48.248L28.9711 48.9551L28.9797 48.9465L28.9881 48.9377L28.264 48.248ZM26.216 50.296L26.9231 51.0031L26.9231 51.0031L26.216 50.296ZM7.592 50.296L8.29911 49.5889L8.29911 49.5889L7.592 50.296ZM5.48 48.184L4.77289 48.8911L4.77289 48.8911L5.48 48.184ZM7.528 30.136L6.82089 30.8431L6.82089 30.8431L7.528 30.136ZM5.48 28.088L4.77289 28.7951L4.77289 28.7951L5.48 28.088ZM5.48 7.864L4.77289 7.15689L4.76427 7.16551L4.75586 7.17434L5.48 7.864ZM7.528 5.816L6.82089 5.10889L6.82089 5.10889L7.528 5.816ZM26.216 5.88L25.4919 6.56965L25.5003 6.57848L25.5089 6.5871L26.216 5.88ZM26.28 19.536C25.5808 19.536 25.2401 19.3619 25.0671 19.1889C24.8941 19.0159 24.72 18.6752 24.72 17.976H22.72C22.72 18.9835 22.9725 19.9228 23.6529 20.6031C24.3332 21.2835 25.2725 21.536 26.28 21.536V19.536ZM24.72 17.976V12.92H22.72V17.976H24.72ZM24.72 12.92C24.72 11.9125 24.4675 10.9732 23.7871 10.2929C23.1068 9.61254 22.1675 9.36 21.16 9.36V11.36C21.8592 11.36 22.1999 11.5341 22.3729 11.7071C22.5459 11.8801 22.72 12.2208 22.72 12.92H24.72ZM21.16 9.36H12.584V11.36H21.16V9.36ZM12.584 9.36C11.5765 9.36 10.6372 9.61254 9.95689 10.2929C9.27655 10.9732 9.024 11.9125 9.024 12.92H11.024C11.024 12.2208 11.1981 11.8801 11.3711 11.7071C11.5441 11.5341 11.8848 11.36 12.584 11.36V9.36ZM9.024 12.92V23.096H11.024V12.92H9.024ZM9.024 23.096C9.024 24.1035 9.27655 25.0428 9.95689 25.7231C10.6372 26.4035 11.5765 26.656 12.584 26.656V24.656C11.8848 24.656 11.5441 24.4819 11.3711 24.3089C11.1981 24.1359 11.024 23.7952 11.024 23.096H9.024ZM12.584 26.656H23.08V24.656H12.584V26.656ZM23.08 26.656C24.0596 26.656 24.8483 26.9826 25.5089 27.6431L26.9231 26.2289C25.877 25.1828 24.575 24.656 23.08 24.656V26.656ZM25.5089 27.6431L27.5569 29.6911L28.9711 28.2769L26.9231 26.2289L25.5089 27.6431ZM27.5569 29.6911C28.2174 30.3517 28.544 31.1404 28.544 32.12H30.544C30.544 30.625 30.0172 29.323 28.9711 28.2769L27.5569 29.6911ZM28.544 32.12V45.048H30.544V32.12H28.544ZM28.544 45.048C28.544 46.0286 28.2161 46.8483 27.5399 47.5583L28.9881 48.9377C30.0186 47.8557 30.544 46.5421 30.544 45.048H28.544ZM27.5569 47.5409L25.5089 49.5889L26.9231 51.0031L28.9711 48.9551L27.5569 47.5409ZM25.5089 49.5889C24.8483 50.2494 24.0596 50.576 23.08 50.576V52.576C24.575 52.576 25.877 52.0492 26.9231 51.0031L25.5089 49.5889ZM23.08 50.576H10.728V52.576H23.08V50.576ZM10.728 50.576C9.74837 50.576 8.95966 50.2494 8.29911 49.5889L6.88489 51.0031C7.93101 52.0492 9.23297 52.576 10.728 52.576V50.576ZM8.29911 49.5889L6.18711 47.4769L4.77289 48.8911L6.88489 51.0031L8.29911 49.5889ZM6.18711 47.4769C5.52656 46.8163 5.2 46.0276 5.2 45.048H3.2C3.2 46.543 3.72678 47.845 4.77289 48.8911L6.18711 47.4769ZM5.2 45.048V38.776H3.2V45.048H5.2ZM5.2 38.776C5.2 38.0768 5.37412 37.7361 5.54711 37.5631C5.72009 37.3901 6.06081 37.216 6.76 37.216V35.216C5.75252 35.216 4.81324 35.4685 4.13289 36.1489C3.45255 36.8292 3.2 37.7685 3.2 38.776H5.2ZM6.76 37.216H7.464V35.216H6.76V37.216ZM7.464 37.216C8.16319 37.216 8.50391 37.3901 8.67689 37.5631C8.84988 37.7361 9.024 38.0768 9.024 38.776H11.024C11.024 37.7685 10.7715 36.8292 10.0911 36.1489C9.41076 35.4685 8.47148 35.216 7.464 35.216V37.216ZM9.024 38.776V43.192H11.024V38.776H9.024ZM9.024 43.192C9.024 44.1995 9.27655 45.1388 9.95689 45.8191C10.6372 46.4995 11.5765 46.752 12.584 46.752V44.752C11.8848 44.752 11.5441 44.5779 11.3711 44.4049C11.1981 44.2319 11.024 43.8912 11.024 43.192H9.024ZM12.584 46.752H21.16V44.752H12.584V46.752ZM21.16 46.752C22.1675 46.752 23.1068 46.4995 23.7871 45.8191C24.4675 45.1388 24.72 44.1995 24.72 43.192H22.72C22.72 43.8912 22.5459 44.2319 22.3729 44.4049C22.1999 44.5779 21.8592 44.752 21.16 44.752V46.752ZM24.72 43.192V33.976H22.72V43.192H24.72ZM24.72 33.976C24.72 32.9685 24.4675 32.0292 23.7871 31.3489C23.1068 30.6685 22.1675 30.416 21.16 30.416V32.416C21.8592 32.416 22.1999 32.5901 22.3729 32.7631C22.5459 32.9361 22.72 33.2768 22.72 33.976H24.72ZM21.16 30.416H10.728V32.416H21.16V30.416ZM10.728 30.416C9.69536 30.416 8.88864 30.0824 8.23511 29.4289L6.82089 30.8431C7.87402 31.8962 9.20064 32.416 10.728 32.416V30.416ZM8.23511 29.4289L6.18711 27.3809L4.77289 28.7951L6.82089 30.8431L8.23511 29.4289ZM6.18711 27.3809C5.52656 26.7203 5.2 25.9316 5.2 24.952H3.2C3.2 26.447 3.72678 27.749 4.77289 28.7951L6.18711 27.3809ZM5.2 24.952V11.064H3.2V24.952H5.2ZM5.2 11.064C5.2 10.0834 5.52789 9.26371 6.20414 8.55365L4.75586 7.17434C3.72544 8.25628 3.2 9.56989 3.2 11.064H5.2ZM6.18711 8.57111L8.23511 6.5231L6.82089 5.10889L4.77289 7.15689L6.18711 8.57111ZM8.23511 6.52311C8.89566 5.86256 9.68437 5.536 10.664 5.536V3.536C9.16897 3.536 7.86701 4.06277 6.82089 5.10889L8.23511 6.52311ZM10.664 5.536H23.08V3.536H10.664V5.536ZM23.08 5.536C24.0437 5.536 24.8273 5.87183 25.4919 6.56965L26.9401 5.19034C25.8981 4.09616 24.591 3.536 23.08 3.536V5.536ZM25.5089 6.5871L27.5569 8.6351L28.9711 7.22089L26.9231 5.17289L25.5089 6.5871ZM27.5569 8.6351C28.2174 9.29565 28.544 10.0844 28.544 11.064H30.544C30.544 9.56896 30.0172 8.26701 28.9711 7.22089L27.5569 8.6351ZM28.544 11.064V17.976H30.544V11.064H28.544ZM28.544 17.976C28.544 18.6752 28.3699 19.0159 28.1969 19.1889C28.0239 19.3619 27.6832 19.536 26.984 19.536V21.536C27.9915 21.536 28.9308 21.2835 29.6111 20.6031C30.2915 19.9228 30.544 18.9835 30.544 17.976H28.544ZM26.984 19.536H26.28V21.536H26.984V19.536ZM42.734 7.48L41.8164 7.87761L41.8167 7.87809L42.734 7.48ZM53.038 31.224L52.1207 31.6221L52.1241 31.63L52.1276 31.6378L53.038 31.224ZM53.806 32.376L53.0989 33.0831L53.1491 33.1334L53.206 33.176L53.806 32.376ZM55.662 32.248L54.83 31.6933L54.8218 31.7055L54.814 31.718L55.662 32.248ZM55.662 49.656L56.5796 49.2584L56.5783 49.2556L55.662 49.656ZM44.782 24.76L43.8589 25.1446L43.8622 25.1526L43.8657 25.1604L44.782 24.76ZM42.158 23.8L41.326 23.2453L41.3259 23.2453L42.158 23.8ZM40.774 49.016C40.774 49.7152 40.5999 50.0559 40.4269 50.2289C40.2539 50.4019 39.9132 50.576 39.214 50.576V52.576C40.2215 52.576 41.1608 52.3235 41.8411 51.6431C42.5215 50.9628 42.774 50.0235 42.774 49.016H40.774ZM39.214 50.576H38.51V52.576H39.214V50.576ZM38.51 50.576C37.8108 50.576 37.4701 50.4019 37.2971 50.2289C37.1241 50.0559 36.95 49.7152 36.95 49.016H34.95C34.95 50.0235 35.2025 50.9628 35.8829 51.6431C36.5632 52.3235 37.5025 52.576 38.51 52.576V50.576ZM36.95 49.016V8.12H34.95V49.016H36.95ZM36.95 8.12C36.95 7.42081 37.1241 7.08009 37.2971 6.9071C37.4701 6.73412 37.8108 6.56 38.51 6.56V4.56C37.5025 4.56 36.5632 4.81254 35.8829 5.49289C35.2025 6.17324 34.95 7.11252 34.95 8.12H36.95ZM38.51 6.56H39.79V4.56H38.51V6.56ZM39.79 6.56C40.3396 6.56 40.7378 6.68332 41.0357 6.87761C41.333 7.07148 41.602 7.38263 41.8164 7.87761L43.6516 7.08239C43.3114 6.29737 42.8123 5.64852 42.1283 5.20239C41.4448 4.75667 40.6484 4.56 39.79 4.56V6.56ZM41.8167 7.87809L52.1207 31.6221L53.9553 30.8259L43.6513 7.08191L41.8167 7.87809ZM52.1276 31.6378C52.38 32.193 52.699 32.6833 53.0989 33.0831L54.5131 31.6689C54.3156 31.4714 54.1227 31.1937 53.9484 30.8102L52.1276 31.6378ZM53.206 33.176C53.6486 33.5079 54.1757 33.76 54.766 33.76V31.76C54.759 31.76 54.6461 31.7561 54.406 31.576L53.206 33.176ZM54.766 33.76C55.5144 33.76 56.1246 33.3946 56.51 32.778L54.814 31.718C54.7964 31.7462 54.7838 31.76 54.7789 31.7649C54.7744 31.7693 54.7754 31.7674 54.7819 31.7638C54.7885 31.76 54.794 31.7582 54.7955 31.7579C54.7963 31.7576 54.7876 31.76 54.766 31.76V33.76ZM56.4941 32.8027C56.9004 32.1933 57.046 31.4388 57.046 30.648H55.046C55.046 31.2225 54.9357 31.5347 54.83 31.6933L56.4941 32.8027ZM57.046 30.648V8.12H55.046V30.648H57.046ZM57.046 8.12C57.046 7.42081 57.2201 7.08009 57.3931 6.9071C57.5661 6.73412 57.9068 6.56 58.606 6.56V4.56C57.5985 4.56 56.6592 4.81254 55.9789 5.49289C55.2985 6.17324 55.046 7.11252 55.046 8.12H57.046ZM58.606 6.56H59.31V4.56H58.606V6.56ZM59.31 6.56C60.0092 6.56 60.3499 6.73412 60.5229 6.9071C60.6959 7.08009 60.87 7.42081 60.87 8.12H62.87C62.87 7.11252 62.6175 6.17324 61.9371 5.49289C61.2568 4.81254 60.3175 4.56 59.31 4.56V6.56ZM60.87 8.12V49.016H62.87V8.12H60.87ZM60.87 49.016C60.87 49.7152 60.6959 50.0559 60.5229 50.2289C60.3499 50.4019 60.0092 50.576 59.31 50.576V52.576C60.3175 52.576 61.2568 52.3235 61.9371 51.6431C62.6175 50.9628 62.87 50.0235 62.87 49.016H60.87ZM59.31 50.576H58.606V52.576H59.31V50.576ZM58.606 50.576C58.0564 50.576 57.6582 50.4527 57.3603 50.2584C57.063 50.0645 56.794 49.7534 56.5796 49.2584L54.7444 50.0536C55.0846 50.8386 55.5837 51.4875 56.2677 51.9336C56.9512 52.3793 57.7476 52.576 58.606 52.576V50.576ZM56.5783 49.2556L45.6983 24.3596L43.8657 25.1604L54.7457 50.0564L56.5783 49.2556ZM45.7051 24.3754C45.2312 23.2381 44.4259 22.224 43.118 22.224V24.224C43.1805 24.224 43.2539 24.2378 43.3677 24.3428C43.5015 24.4663 43.6771 24.7083 43.8589 25.1446L45.7051 24.3754ZM43.118 22.224C42.3289 22.224 41.7244 22.6476 41.326 23.2453L42.99 24.3547C43.0549 24.2574 43.0979 24.2295 43.1045 24.2255C43.1078 24.2235 43.1074 24.2241 43.1051 24.2248C43.103 24.2253 43.1062 24.224 43.118 24.224V22.224ZM41.3259 23.2453C40.9197 23.8547 40.774 24.6092 40.774 25.4H42.774C42.774 24.8255 42.8843 24.5133 42.9901 24.3547L41.3259 23.2453ZM40.774 25.4V49.016H42.774V25.4H40.774ZM71.5905 50.104L72.3146 49.4143L72.3062 49.4055L72.2976 49.3969L71.5905 50.104ZM69.5425 48.056L70.2496 47.3489L70.2496 47.3489L69.5425 48.056ZM90.9825 46.624C91.6817 46.624 92.0224 46.7981 92.1954 46.9711C92.3684 47.1441 92.5425 47.4848 92.5425 48.184H94.5425C94.5425 47.1765 94.29 46.2372 93.6096 45.5569C92.9293 44.8765 91.99 44.624 90.9825 44.624V46.624ZM92.5425 48.184V48.888H94.5425V48.184H92.5425ZM92.5425 48.888C92.5425 49.5872 92.3684 49.9279 92.1954 50.1009C92.0224 50.2739 91.6817 50.448 90.9825 50.448V52.448C91.99 52.448 92.9293 52.1955 93.6096 51.5151C94.29 50.8348 94.5425 49.8955 94.5425 48.888H92.5425ZM90.9825 50.448H74.7265V52.448H90.9825V50.448ZM74.7265 50.448C73.7628 50.448 72.9792 50.1122 72.3146 49.4143L70.8664 50.7937C71.9084 51.8878 73.2155 52.448 74.7265 52.448V50.448ZM72.2976 49.3969L70.2496 47.3489L68.8354 48.7631L70.8834 50.8111L72.2976 49.3969ZM70.2496 47.3489C69.5891 46.6883 69.2625 45.8996 69.2625 44.92H67.2625C67.2625 46.415 67.7893 47.717 68.8354 48.7631L70.2496 47.3489ZM69.2625 44.92V8.056H67.2625V44.92H69.2625ZM69.2625 8.056C69.2625 7.35681 69.4366 7.01609 69.6096 6.84311C69.7826 6.67012 70.1233 6.496 70.8225 6.496V4.496C69.815 4.496 68.8757 4.74855 68.1954 5.42889C67.515 6.10924 67.2625 7.04852 67.2625 8.056H69.2625ZM70.8225 6.496H90.9825V4.496H70.8225V6.496ZM90.9825 6.496C91.6817 6.496 92.0224 6.67012 92.1954 6.84311C92.3684 7.01609 92.5425 7.35681 92.5425 8.056H94.5425C94.5425 7.04852 94.29 6.10924 93.6096 5.42889C92.9293 4.74855 91.99 4.496 90.9825 4.496V6.496ZM92.5425 8.056V8.76H94.5425V8.056H92.5425ZM92.5425 8.76C92.5425 9.45919 92.3684 9.79991 92.1954 9.97289C92.0224 10.1459 91.6817 10.32 90.9825 10.32V12.32C91.99 12.32 92.9293 12.0675 93.6096 11.3871C94.29 10.7068 94.5425 9.76748 94.5425 8.76H92.5425ZM90.9825 10.32H76.5825V12.32H90.9825V10.32ZM76.5825 10.32C75.575 10.32 74.6357 10.5725 73.9554 11.2529C73.275 11.9332 73.0225 12.8725 73.0225 13.88H75.0225C75.0225 13.1808 75.1966 12.8401 75.3696 12.6671C75.5426 12.4941 75.8833 12.32 76.5825 12.32V10.32ZM73.0225 13.88V22.456H75.0225V13.88H73.0225ZM73.0225 22.456C73.0225 23.4635 73.275 24.4028 73.9554 25.0831C74.6357 25.7635 75.575 26.016 76.5825 26.016V24.016C75.8833 24.016 75.5426 23.8419 75.3696 23.6689C75.1966 23.4959 75.0225 23.1552 75.0225 22.456H73.0225ZM76.5825 26.016H90.9825V24.016H76.5825V26.016ZM90.9825 26.016C91.6817 26.016 92.0224 26.1901 92.1954 26.3631C92.3684 26.5361 92.5425 26.8768 92.5425 27.576H94.5425C94.5425 26.5685 94.29 25.6292 93.6096 24.9489C92.9293 24.2685 91.99 24.016 90.9825 24.016V26.016ZM92.5425 27.576V28.28H94.5425V27.576H92.5425ZM92.5425 28.28C92.5425 28.9792 92.3684 29.3199 92.1954 29.4929C92.0224 29.6659 91.6817 29.84 90.9825 29.84V31.84C91.99 31.84 92.9293 31.5875 93.6096 30.9071C94.29 30.2268 94.5425 29.2875 94.5425 28.28H92.5425ZM90.9825 29.84H76.5825V31.84H90.9825V29.84ZM76.5825 29.84C75.575 29.84 74.6357 30.0925 73.9554 30.7729C73.275 31.4532 73.0225 32.3925 73.0225 33.4H75.0225C75.0225 32.7008 75.1966 32.3601 75.3696 32.1871C75.5426 32.0141 75.8833 31.84 76.5825 31.84V29.84ZM73.0225 33.4V43.064H75.0225V33.4H73.0225ZM73.0225 43.064C73.0225 44.0715 73.275 45.0108 73.9554 45.6911C74.6357 46.3715 75.575 46.624 76.5825 46.624V44.624C75.8833 44.624 75.5426 44.4499 75.3696 44.2769C75.1966 44.1039 75.0225 43.7632 75.0225 43.064H73.0225ZM76.5825 46.624H90.9825V44.624H76.5825V46.624ZM122.301 49.272L121.322 49.476L121.325 49.4889L122.301 49.272ZM120.701 41.592L121.68 41.388L121.677 41.3751L120.701 41.592ZM105.533 41.592L104.557 41.3751L104.554 41.388L105.533 41.592ZM103.933 49.272L104.909 49.4889L104.912 49.476L103.933 49.272ZM98.621 51L97.9139 51.7071L97.9325 51.7257L97.952 51.7433L98.621 51ZM98.109 48.76L99.0791 49.0025L99.085 48.979L99.0898 48.9552L98.109 48.76ZM106.237 7.928L105.261 7.71107L105.258 7.72189L105.256 7.73277L106.237 7.928ZM119.805 7.928L120.785 7.72834L120.783 7.71969L120.781 7.71107L119.805 7.928ZM128.125 48.76L127.145 48.9597L127.15 48.9812L127.155 49.0025L128.125 48.76ZM111.101 13.752L110.125 13.5351L110.123 13.5455L110.12 13.5559L111.101 13.752ZM107.709 30.712L108.679 30.9545L108.685 30.9315L108.69 30.9081L107.709 30.712ZM108.221 32.952L107.514 33.6591L107.532 33.6777L107.552 33.6953L108.221 32.952ZM118.461 30.712L117.482 30.9152L117.486 30.935L117.491 30.9545L118.461 30.712ZM114.941 13.752L115.92 13.5488L115.917 13.5351L114.941 13.752ZM125.053 50.576C124.481 50.576 124.124 50.4321 123.887 50.2332C123.644 50.0296 123.415 49.6758 123.277 49.0551L121.325 49.4889C121.528 50.4042 121.929 51.2024 122.603 51.7668C123.283 52.3359 124.132 52.576 125.053 52.576V50.576ZM123.28 49.068L121.68 41.388L119.722 41.796L121.322 49.476L123.28 49.068ZM121.677 41.3751C121.474 40.4598 121.073 39.6616 120.399 39.0972C119.719 38.5281 118.87 38.288 117.949 38.288V40.288C118.521 40.288 118.878 40.4319 119.115 40.6308C119.358 40.8344 119.587 41.1882 119.725 41.8089L121.677 41.3751ZM117.949 38.288H108.285V40.288H117.949V38.288ZM108.285 38.288C107.364 38.288 106.515 38.5281 105.835 39.0972C105.161 39.6616 104.76 40.4598 104.557 41.3751L106.509 41.8089C106.647 41.1882 106.876 40.8344 107.119 40.6308C107.356 40.4319 107.713 40.288 108.285 40.288V38.288ZM104.554 41.388L102.954 49.068L104.912 49.476L106.512 41.796L104.554 41.388ZM102.957 49.0551C102.819 49.6758 102.59 50.0296 102.347 50.2332C102.11 50.4321 101.753 50.576 101.181 50.576V52.576C102.102 52.576 102.951 52.3359 103.631 51.7668C104.305 51.2024 104.706 50.4042 104.909 49.4889L102.957 49.0551ZM101.181 50.576H100.413V52.576H101.181V50.576ZM100.413 50.576C99.8072 50.576 99.4785 50.4264 99.29 50.2567L97.952 51.7433C98.6169 52.3416 99.4828 52.576 100.413 52.576V50.576ZM99.3281 50.2929C99.1648 50.1296 99.045 49.8897 99.045 49.464H97.045C97.045 50.3183 97.3092 51.1024 97.9139 51.7071L99.3281 50.2929ZM99.045 49.464C99.045 49.1988 99.0653 49.0578 99.0791 49.0025L97.1389 48.5175C97.0673 48.8036 97.045 49.1319 97.045 49.464H99.045ZM99.0898 48.9552L107.218 8.12323L105.256 7.73277L97.1282 48.5648L99.0898 48.9552ZM107.213 8.14493C107.351 7.52418 107.58 7.17038 107.823 6.96675C108.06 6.76792 108.417 6.624 108.989 6.624V4.624C108.068 4.624 107.219 4.86408 106.539 5.43324C105.865 5.99762 105.464 6.79582 105.261 7.71107L107.213 8.14493ZM108.989 6.624H117.053V4.624H108.989V6.624ZM117.053 6.624C117.625 6.624 117.982 6.76792 118.219 6.96675C118.462 7.17038 118.691 7.52418 118.829 8.14493L120.781 7.71107C120.578 6.79582 120.177 5.99762 119.503 5.43324C118.823 4.86408 117.974 4.624 117.053 4.624V6.624ZM118.825 8.12766L127.145 48.9597L129.105 48.5603L120.785 7.72834L118.825 8.12766ZM127.155 49.0025C127.167 49.0508 127.189 49.2071 127.189 49.528H129.189C129.189 49.1662 129.168 48.8105 129.095 48.5175L127.155 49.0025ZM127.189 49.528C127.189 50.0156 127.055 50.2108 126.943 50.3076C126.803 50.4285 126.489 50.576 125.821 50.576V52.576C126.732 52.576 127.602 52.3822 128.251 51.8204C128.929 51.2345 129.189 50.4057 129.189 49.528H127.189ZM125.821 50.576H125.053V52.576H125.821V50.576ZM113.021 10.448C112.234 10.448 111.565 10.7888 111.069 11.3838C110.605 11.9409 110.312 12.6918 110.125 13.5351L112.077 13.9689C112.231 13.2762 112.429 12.8751 112.605 12.6642C112.749 12.4912 112.87 12.448 113.021 12.448V10.448ZM110.12 13.5559L106.728 30.5159L108.69 30.9081L112.082 13.9481L110.12 13.5559ZM106.739 30.4695C106.667 30.7556 106.645 31.0839 106.645 31.416H108.645C108.645 31.1508 108.665 31.0098 108.679 30.9545L106.739 30.4695ZM106.645 31.416C106.645 32.2703 106.909 33.0544 107.514 33.6591L108.928 32.2449C108.765 32.0816 108.645 31.8417 108.645 31.416H106.645ZM107.552 33.6953C108.217 34.2936 109.083 34.528 110.013 34.528V32.528C109.407 32.528 109.078 32.3784 108.89 32.2087L107.552 33.6953ZM110.013 34.528H116.157V32.528H110.013V34.528ZM116.157 34.528C117.068 34.528 117.938 34.3342 118.587 33.7724C119.265 33.1865 119.525 32.3577 119.525 31.48H117.525C117.525 31.9676 117.391 32.1628 117.279 32.2596C117.139 32.3805 116.825 32.528 116.157 32.528V34.528ZM119.525 31.48C119.525 31.1182 119.504 30.7625 119.431 30.4695L117.491 30.9545C117.503 31.0028 117.525 31.1591 117.525 31.48H119.525ZM119.44 30.5088L115.92 13.5488L113.962 13.9552L117.482 30.9152L119.44 30.5088ZM115.917 13.5351C115.73 12.6918 115.437 11.9409 114.973 11.3838C114.477 10.7888 113.808 10.448 113.021 10.448V12.448C113.172 12.448 113.293 12.4912 113.437 12.6642C113.613 12.8751 113.811 13.2762 113.965 13.9689L115.917 13.5351ZM152.525 43.512L151.602 43.8966L151.608 43.9113L151.615 43.9258L152.525 43.512ZM151.373 42.104L150.737 42.8758L150.75 42.8864L150.763 42.8966L151.373 42.104ZM142.285 34.616L141.609 35.3532L141.629 35.371L141.649 35.3878L142.285 34.616ZM139.533 34.488L138.744 33.8741L138.721 33.9029L138.701 33.9333L139.533 34.488ZM139.533 23.672L138.676 24.1865L138.688 24.2069L138.701 24.2267L139.533 23.672ZM142.285 23.288L142.992 23.9951L142.997 23.9902L142.285 23.288ZM151.565 13.88L152.277 14.5822L152.283 14.576L152.289 14.5697L151.565 13.88ZM157.389 16.248L158.102 16.9488L158.108 16.9433L158.113 16.9377L157.389 16.248ZM146.637 27.192L147.344 27.8991L147.35 27.8928L146.637 27.192ZM146.829 30.84L147.461 30.0648L147.46 30.0639L146.829 30.84ZM157.197 39.288L156.565 40.0632L156.576 40.0721L156.587 40.0806L157.197 39.288ZM158.349 40.696L157.426 41.0806L157.432 41.0953L157.439 41.1098L158.349 40.696ZM157.669 49.016C157.669 49.7152 157.495 50.0559 157.322 50.2289C157.149 50.4019 156.808 50.576 156.109 50.576V52.576C157.116 52.576 158.056 52.3235 158.736 51.6431C159.416 50.9628 159.669 50.0235 159.669 49.016H157.669ZM156.109 50.576H155.405V52.576H156.109V50.576ZM155.405 50.576C154.706 50.576 154.365 50.4019 154.192 50.2289C154.019 50.0559 153.845 49.7152 153.845 49.016H151.845C151.845 50.0235 152.098 50.9628 152.778 51.6431C153.458 52.3235 154.398 52.576 155.405 52.576V50.576ZM153.845 49.016V45.24H151.845V49.016H153.845ZM153.845 45.24C153.845 44.4587 153.724 43.7324 153.435 43.0982L151.615 43.9258C151.753 44.2303 151.845 44.656 151.845 45.24H153.845ZM153.448 43.1274C153.152 42.4174 152.64 41.817 151.983 41.3114L150.763 42.8966C151.215 43.2443 151.471 43.5826 151.602 43.8966L153.448 43.1274ZM152.009 41.3322L142.921 33.8442L141.649 35.3878L150.737 42.8758L152.009 41.3322ZM142.961 33.8788C142.313 33.2849 141.549 32.912 140.685 32.912V34.912C140.931 34.912 141.233 35.0085 141.609 35.3532L142.961 33.8788ZM140.685 32.912C139.894 32.912 139.224 33.2568 138.744 33.8741L140.322 35.1019C140.44 34.9512 140.537 34.912 140.685 34.912V32.912ZM138.701 33.9333C138.295 34.5427 138.149 35.2972 138.149 36.088H140.149C140.149 35.5135 140.259 35.2013 140.365 35.0427L138.701 33.9333ZM138.149 36.088V49.016H140.149V36.088H138.149ZM138.149 49.016C138.149 49.7152 137.975 50.0559 137.802 50.2289C137.629 50.4019 137.288 50.576 136.589 50.576V52.576C137.596 52.576 138.536 52.3235 139.216 51.6431C139.896 50.9628 140.149 50.0235 140.149 49.016H138.149ZM136.589 50.576H135.885V52.576H136.589V50.576ZM135.885 50.576C135.186 50.576 134.845 50.4019 134.672 50.2289C134.499 50.0559 134.325 49.7152 134.325 49.016H132.325C132.325 50.0235 132.578 50.9628 133.258 51.6431C133.938 52.3235 134.878 52.576 135.885 52.576V50.576ZM134.325 49.016V8.056H132.325V49.016H134.325ZM134.325 8.056C134.325 7.35681 134.499 7.01609 134.672 6.84311C134.845 6.67012 135.186 6.496 135.885 6.496V4.496C134.878 4.496 133.938 4.74855 133.258 5.42889C132.578 6.10924 132.325 7.04852 132.325 8.056H134.325ZM135.885 6.496H136.589V4.496H135.885V6.496ZM136.589 6.496C137.288 6.496 137.629 6.67012 137.802 6.84311C137.975 7.01609 138.149 7.35681 138.149 8.056H140.149C140.149 7.04852 139.896 6.10924 139.216 5.42889C138.536 4.74855 137.596 4.496 136.589 4.496V6.496ZM138.149 8.056V22.008H140.149V8.056H138.149ZM138.149 22.008C138.149 22.8072 138.298 23.557 138.676 24.1865L140.39 23.1575C140.256 22.9337 140.149 22.5742 140.149 22.008H138.149ZM138.701 24.2267C139.124 24.862 139.765 25.248 140.557 25.248V23.248C140.5 23.248 140.479 23.2368 140.471 23.2324C140.46 23.2263 140.421 23.2015 140.365 23.1173L138.701 24.2267ZM140.557 25.248C141.476 25.248 142.297 24.69 142.992 23.9951L141.578 22.5809C140.993 23.1659 140.662 23.248 140.557 23.248V25.248ZM142.997 23.9902L152.277 14.5822L150.853 13.1778L141.573 22.5858L142.997 23.9902ZM152.289 14.5697C153.32 13.4877 153.845 12.1741 153.845 10.68H151.845C151.845 11.6606 151.517 12.4803 150.841 13.1903L152.289 14.5697ZM153.845 10.68V8.056H151.845V10.68H153.845ZM153.845 8.056C153.845 7.35681 154.019 7.01609 154.192 6.84311C154.365 6.67012 154.706 6.496 155.405 6.496V4.496C154.398 4.496 153.458 4.74855 152.778 5.42889C152.098 6.10924 151.845 7.04852 151.845 8.056H153.845ZM155.405 6.496H156.109V4.496H155.405V6.496ZM156.109 6.496C156.808 6.496 157.149 6.67012 157.322 6.84311C157.495 7.01609 157.669 7.35681 157.669 8.056H159.669C159.669 7.04852 159.416 6.10924 158.736 5.42889C158.056 4.74855 157.116 4.496 156.109 4.496V6.496ZM157.669 8.056V13.048H159.669V8.056H157.669ZM157.669 13.048C157.669 14.0286 157.341 14.8483 156.665 15.5583L158.113 16.9377C159.144 15.8557 159.669 14.5421 159.669 13.048H157.669ZM156.676 15.5472L145.924 26.4912L147.35 27.8928L158.102 16.9488L156.676 15.5472ZM145.93 26.4849C145.233 27.1821 144.805 28.0213 144.805 28.984H146.805C146.805 28.6667 146.932 28.3112 147.344 27.8991L145.93 26.4849ZM144.805 28.984C144.805 30.0507 145.355 30.9308 146.198 31.6161L147.46 30.0639C146.938 29.6398 146.805 29.2827 146.805 28.984H144.805ZM146.197 31.6152L156.565 40.0632L157.829 38.5128L147.461 30.0648L146.197 31.6152ZM156.587 40.0806C157.039 40.4283 157.295 40.7666 157.426 41.0806L159.272 40.3114C158.976 39.6014 158.464 39.001 157.807 38.4954L156.587 40.0806ZM157.439 41.1098C157.577 41.4143 157.669 41.84 157.669 42.424H159.669C159.669 41.6427 159.548 40.9164 159.259 40.2822L157.439 41.1098ZM157.669 42.424V49.016H159.669V42.424H157.669ZM167.778 50.104L168.502 49.4143L168.494 49.4055L168.485 49.3969L167.778 50.104ZM165.73 48.056L166.437 47.3489L166.437 47.3489L165.73 48.056ZM187.17 46.624C187.869 46.624 188.21 46.7981 188.383 46.9711C188.556 47.1441 188.73 47.4848 188.73 48.184H190.73C190.73 47.1765 190.477 46.2372 189.797 45.5569C189.117 44.8765 188.177 44.624 187.17 44.624V46.624ZM188.73 48.184V48.888H190.73V48.184H188.73ZM188.73 48.888C188.73 49.5872 188.556 49.9279 188.383 50.1009C188.21 50.2739 187.869 50.448 187.17 50.448V52.448C188.177 52.448 189.117 52.1955 189.797 51.5151C190.477 50.8348 190.73 49.8955 190.73 48.888H188.73ZM187.17 50.448H170.914V52.448H187.17V50.448ZM170.914 50.448C169.95 50.448 169.167 50.1122 168.502 49.4143L167.054 50.7937C168.096 51.8878 169.403 52.448 170.914 52.448V50.448ZM168.485 49.3969L166.437 47.3489L165.023 48.7631L167.071 50.8111L168.485 49.3969ZM166.437 47.3489C165.777 46.6883 165.45 45.8996 165.45 44.92H163.45C163.45 46.415 163.977 47.717 165.023 48.7631L166.437 47.3489ZM165.45 44.92V8.056H163.45V44.92H165.45ZM165.45 8.056C165.45 7.35681 165.624 7.01609 165.797 6.84311C165.97 6.67012 166.311 6.496 167.01 6.496V4.496C166.003 4.496 165.063 4.74855 164.383 5.42889C163.703 6.10924 163.45 7.04852 163.45 8.056H165.45ZM167.01 6.496H187.17V4.496H167.01V6.496ZM187.17 6.496C187.869 6.496 188.21 6.67012 188.383 6.84311C188.556 7.01609 188.73 7.35681 188.73 8.056H190.73C190.73 7.04852 190.477 6.10924 189.797 5.42889C189.117 4.74855 188.177 4.496 187.17 4.496V6.496ZM188.73 8.056V8.76H190.73V8.056H188.73ZM188.73 8.76C188.73 9.45919 188.556 9.79991 188.383 9.97289C188.21 10.1459 187.869 10.32 187.17 10.32V12.32C188.177 12.32 189.117 12.0675 189.797 11.3871C190.477 10.7068 190.73 9.76748 190.73 8.76H188.73ZM187.17 10.32H172.77V12.32H187.17V10.32ZM172.77 10.32C171.763 10.32 170.823 10.5725 170.143 11.2529C169.463 11.9332 169.21 12.8725 169.21 13.88H171.21C171.21 13.1808 171.384 12.8401 171.557 12.6671C171.73 12.4941 172.071 12.32 172.77 12.32V10.32ZM169.21 13.88V22.456H171.21V13.88H169.21ZM169.21 22.456C169.21 23.4635 169.463 24.4028 170.143 25.0831C170.823 25.7635 171.763 26.016 172.77 26.016V24.016C172.071 24.016 171.73 23.8419 171.557 23.6689C171.384 23.4959 171.21 23.1552 171.21 22.456H169.21ZM172.77 26.016H187.17V24.016H172.77V26.016ZM187.17 26.016C187.869 26.016 188.21 26.1901 188.383 26.3631C188.556 26.5361 188.73 26.8768 188.73 27.576H190.73C190.73 26.5685 190.477 25.6292 189.797 24.9489C189.117 24.2685 188.177 24.016 187.17 24.016V26.016ZM188.73 27.576V28.28H190.73V27.576H188.73ZM188.73 28.28C188.73 28.9792 188.556 29.3199 188.383 29.4929C188.21 29.6659 187.869 29.84 187.17 29.84V31.84C188.177 31.84 189.117 31.5875 189.797 30.9071C190.477 30.2268 190.73 29.2875 190.73 28.28H188.73ZM187.17 29.84H172.77V31.84H187.17V29.84ZM172.77 29.84C171.763 29.84 170.823 30.0925 170.143 30.7729C169.463 31.4532 169.21 32.3925 169.21 33.4H171.21C171.21 32.7008 171.384 32.3601 171.557 32.1871C171.73 32.0141 172.071 31.84 172.77 31.84V29.84ZM169.21 33.4V43.064H171.21V33.4H169.21ZM169.21 43.064C169.21 44.0715 169.463 45.0108 170.143 45.6911C170.823 46.3715 171.763 46.624 172.77 46.624V44.624C172.071 44.624 171.73 44.4499 171.557 44.2769C171.384 44.1039 171.21 43.7632 171.21 43.064H169.21ZM172.77 46.624H187.17V44.624H172.77V46.624ZM212.793 50.296L213.5 49.5889L213.5 49.5889L212.793 50.296ZM210.681 48.184L209.973 48.8911L209.973 48.8911L210.681 48.184ZM217.401 6.904L216.693 7.61111L216.693 7.61111L217.401 6.904ZM219.513 9.016L218.805 9.72311L218.805 9.72311L219.513 9.016ZM220.473 29.944L221.383 30.3578L221.389 30.3433L221.396 30.3286L220.473 29.944ZM217.401 33.4L218.108 34.1071L218.108 34.1071L217.401 33.4ZM218.233 46.752C218.932 46.752 219.272 46.9261 219.445 47.0991C219.618 47.2721 219.793 47.6128 219.793 48.312H221.793C221.793 47.3045 221.54 46.3652 220.86 45.6849C220.179 45.0045 219.24 44.752 218.233 44.752V46.752ZM219.793 48.312V49.016H221.793V48.312H219.793ZM219.793 49.016C219.793 49.7152 219.618 50.0559 219.445 50.2289C219.272 50.4019 218.932 50.576 218.233 50.576V52.576C219.24 52.576 220.179 52.3235 220.86 51.6431C221.54 50.9628 221.793 50.0235 221.793 49.016H219.793ZM218.233 50.576H215.929V52.576H218.233V50.576ZM215.929 50.576C214.949 50.576 214.16 50.2494 213.5 49.5889L212.085 51.0031C213.132 52.0492 214.433 52.576 215.929 52.576V50.576ZM213.5 49.5889L211.388 47.4769L209.973 48.8911L212.085 51.0031L213.5 49.5889ZM211.388 47.4769C210.727 46.8163 210.401 46.0276 210.401 45.048H208.401C208.401 46.543 208.927 47.845 209.973 48.8911L211.388 47.4769ZM210.401 45.048V37.24H208.401V45.048H210.401ZM210.401 37.24C210.401 36.2325 210.148 35.2932 209.468 34.6129C208.787 33.9325 207.848 33.68 206.841 33.68V35.68C207.54 35.68 207.88 35.8541 208.053 36.0271C208.226 36.2001 208.401 36.5408 208.401 37.24H210.401ZM206.841 33.68H203.897V35.68H206.841V33.68ZM203.897 33.68C202.889 33.68 201.95 33.9325 201.269 34.6129C200.589 35.2932 200.337 36.2325 200.337 37.24H202.337C202.337 36.5408 202.511 36.2001 202.684 36.0271C202.857 35.8541 203.197 35.68 203.897 35.68V33.68ZM200.337 37.24V48.952H202.337V37.24H200.337ZM200.337 48.952C200.337 49.6512 200.162 49.9919 199.989 50.1649C199.816 50.3379 199.476 50.512 198.777 50.512V52.512C199.784 52.512 200.723 52.2595 201.404 51.5791C202.084 50.8988 202.337 49.9595 202.337 48.952H200.337ZM198.777 50.512H198.073V52.512H198.777V50.512ZM198.073 50.512C197.373 50.512 197.033 50.3379 196.86 50.1649C196.687 49.9919 196.513 49.6512 196.513 48.952H194.513C194.513 49.9595 194.765 50.8988 195.445 51.5791C196.126 52.2595 197.065 52.512 198.073 52.512V50.512ZM196.513 48.952V8.184H194.513V48.952H196.513ZM196.513 8.184C196.513 7.48481 196.687 7.14409 196.86 6.9711C197.033 6.79812 197.373 6.624 198.073 6.624V4.624C197.065 4.624 196.126 4.87654 195.445 5.55689C194.765 6.23724 194.513 7.17652 194.513 8.184H196.513ZM198.073 6.624H214.265V4.624H198.073V6.624ZM214.265 6.624C215.244 6.624 216.033 6.95056 216.693 7.61111L218.108 6.19689C217.061 5.15077 215.76 4.624 214.265 4.624V6.624ZM216.693 7.61111L218.805 9.72311L220.22 8.30889L218.108 6.19689L216.693 7.61111ZM218.805 9.72311C219.466 10.3837 219.793 11.1724 219.793 12.152H221.793C221.793 10.657 221.266 9.35501 220.22 8.30889L218.805 9.72311ZM219.793 12.152V28.216H221.793V12.152H219.793ZM219.793 28.216C219.793 28.7441 219.705 29.1865 219.549 29.5594L221.396 30.3286C221.667 29.6775 221.793 28.9679 221.793 28.216H219.793ZM219.562 29.5302C219.41 29.864 219.149 30.2371 218.741 30.6449L220.156 32.0591C220.687 31.5282 221.108 30.9626 221.383 30.3578L219.562 29.5302ZM218.741 30.6449L216.693 32.6929L218.108 34.1071L220.156 32.0591L218.741 30.6449ZM216.693 32.6929C216.281 33.1048 215.964 33.3856 215.733 33.5564C215.618 33.642 215.545 33.6841 215.51 33.7012C215.461 33.725 215.529 33.68 215.673 33.68V35.68C215.966 35.68 216.217 35.5817 216.387 35.4988C216.571 35.4092 216.751 35.2913 216.924 35.1636C217.269 34.9078 217.666 34.5485 218.108 34.1071L216.693 32.6929ZM215.673 33.68C215.033 33.68 214.706 34.1558 214.591 34.3752C214.463 34.6192 214.395 34.8999 214.351 35.1476C214.261 35.6625 214.225 36.373 214.225 37.24H216.225C216.225 36.4003 216.262 35.8309 216.322 35.4924C216.353 35.3135 216.378 35.2741 216.362 35.3048C216.359 35.3108 216.163 35.68 215.673 35.68V33.68ZM214.225 37.24V43.192H216.225V37.24H214.225ZM214.225 43.192C214.225 44.1995 214.477 45.1388 215.157 45.8191C215.838 46.4995 216.777 46.752 217.785 46.752V44.752C217.085 44.752 216.745 44.5779 216.572 44.4049C216.399 44.2319 216.225 43.8912 216.225 43.192H214.225ZM217.785 46.752H218.233V44.752H217.785V46.752ZM215.969 14.008C215.969 13.0005 215.716 12.0612 215.036 11.3809C214.355 10.7005 213.416 10.448 212.409 10.448V12.448C213.108 12.448 213.448 12.6221 213.621 12.7951C213.794 12.9681 213.969 13.3088 213.969 14.008H215.969ZM212.409 10.448H203.897V12.448H212.409V10.448ZM203.897 10.448C202.889 10.448 201.95 10.7005 201.269 11.3809C200.589 12.0612 200.337 13.0005 200.337 14.008H202.337C202.337 13.3088 202.511 12.9681 202.684 12.7951C202.857 12.6221 203.197 12.448 203.897 12.448V10.448ZM200.337 14.008V26.36H202.337V14.008H200.337ZM200.337 26.36C200.337 27.3675 200.589 28.3068 201.269 28.9871C201.95 29.6675 202.889 29.92 203.897 29.92V27.92C203.197 27.92 202.857 27.7459 202.684 27.5729C202.511 27.3999 202.337 27.0592 202.337 26.36H200.337ZM203.897 29.92H212.409V27.92H203.897V29.92ZM212.409 29.92C213.416 29.92 214.355 29.6675 215.036 28.9871C215.716 28.3068 215.969 27.3675 215.969 26.36H213.969C213.969 27.0592 213.794 27.3999 213.621 27.5729C213.448 27.7459 213.108 27.92 212.409 27.92V29.92ZM215.969 26.36V14.008H213.969V26.36H215.969ZM250.639 28.984L251.346 28.2769L251.346 28.2769L250.639 28.984ZM250.639 48.248L251.346 48.9551L251.355 48.9465L251.363 48.9377L250.639 48.248ZM248.591 50.296L249.298 51.0031L249.298 51.0031L248.591 50.296ZM229.967 50.296L230.674 49.5889L230.674 49.5889L229.967 50.296ZM227.855 48.184L227.148 48.8911L227.148 48.8911L227.855 48.184ZM229.903 30.136L229.196 30.8431L229.196 30.8431L229.903 30.136ZM227.855 28.088L227.148 28.7951L227.148 28.7951L227.855 28.088ZM227.855 7.864L227.148 7.15689L227.139 7.16551L227.131 7.17434L227.855 7.864ZM229.903 5.816L229.196 5.10889L229.196 5.10889L229.903 5.816ZM248.591 5.88L247.867 6.56965L247.875 6.57848L247.884 6.5871L248.591 5.88ZM248.655 19.536C247.956 19.536 247.615 19.3619 247.442 19.1889C247.269 19.0159 247.095 18.6752 247.095 17.976H245.095C245.095 18.9835 245.348 19.9228 246.028 20.6031C246.708 21.2835 247.648 21.536 248.655 21.536V19.536ZM247.095 17.976V12.92H245.095V17.976H247.095ZM247.095 12.92C247.095 11.9125 246.842 10.9732 246.162 10.2929C245.482 9.61254 244.542 9.36 243.535 9.36V11.36C244.234 11.36 244.575 11.5341 244.748 11.7071C244.921 11.8801 245.095 12.2208 245.095 12.92H247.095ZM243.535 9.36H234.959V11.36H243.535V9.36ZM234.959 9.36C233.952 9.36 233.012 9.61254 232.332 10.2929C231.652 10.9732 231.399 11.9125 231.399 12.92H233.399C233.399 12.2208 233.573 11.8801 233.746 11.7071C233.919 11.5341 234.26 11.36 234.959 11.36V9.36ZM231.399 12.92V23.096H233.399V12.92H231.399ZM231.399 23.096C231.399 24.1035 231.652 25.0428 232.332 25.7231C233.012 26.4035 233.952 26.656 234.959 26.656V24.656C234.26 24.656 233.919 24.4819 233.746 24.3089C233.573 24.1359 233.399 23.7952 233.399 23.096H231.399ZM234.959 26.656H245.455V24.656H234.959V26.656ZM245.455 26.656C246.435 26.656 247.223 26.9826 247.884 27.6431L249.298 26.2289C248.252 25.1828 246.95 24.656 245.455 24.656V26.656ZM247.884 27.6431L249.932 29.6911L251.346 28.2769L249.298 26.2289L247.884 27.6431ZM249.932 29.6911C250.592 30.3517 250.919 31.1404 250.919 32.12H252.919C252.919 30.625 252.392 29.323 251.346 28.2769L249.932 29.6911ZM250.919 32.12V45.048H252.919V32.12H250.919ZM250.919 45.048C250.919 46.0286 250.591 46.8483 249.915 47.5583L251.363 48.9377C252.394 47.8557 252.919 46.5421 252.919 45.048H250.919ZM249.932 47.5409L247.884 49.5889L249.298 51.0031L251.346 48.9551L249.932 47.5409ZM247.884 49.5889C247.223 50.2494 246.435 50.576 245.455 50.576V52.576C246.95 52.576 248.252 52.0492 249.298 51.0031L247.884 49.5889ZM245.455 50.576H233.103V52.576H245.455V50.576ZM233.103 50.576C232.123 50.576 231.335 50.2494 230.674 49.5889L229.26 51.0031C230.306 52.0492 231.608 52.576 233.103 52.576V50.576ZM230.674 49.5889L228.562 47.4769L227.148 48.8911L229.26 51.0031L230.674 49.5889ZM228.562 47.4769C227.902 46.8163 227.575 46.0276 227.575 45.048H225.575C225.575 46.543 226.102 47.845 227.148 48.8911L228.562 47.4769ZM227.575 45.048V38.776H225.575V45.048H227.575ZM227.575 38.776C227.575 38.0768 227.749 37.7361 227.922 37.5631C228.095 37.3901 228.436 37.216 229.135 37.216V35.216C228.128 35.216 227.188 35.4685 226.508 36.1489C225.828 36.8292 225.575 37.7685 225.575 38.776H227.575ZM229.135 37.216H229.839V35.216H229.135V37.216ZM229.839 37.216C230.538 37.216 230.879 37.3901 231.052 37.5631C231.225 37.7361 231.399 38.0768 231.399 38.776H233.399C233.399 37.7685 233.146 36.8292 232.466 36.1489C231.786 35.4685 230.846 35.216 229.839 35.216V37.216ZM231.399 38.776V43.192H233.399V38.776H231.399ZM231.399 43.192C231.399 44.1995 231.652 45.1388 232.332 45.8191C233.012 46.4995 233.952 46.752 234.959 46.752V44.752C234.26 44.752 233.919 44.5779 233.746 44.4049C233.573 44.2319 233.399 43.8912 233.399 43.192H231.399ZM234.959 46.752H243.535V44.752H234.959V46.752ZM243.535 46.752C244.542 46.752 245.482 46.4995 246.162 45.8191C246.842 45.1388 247.095 44.1995 247.095 43.192H245.095C245.095 43.8912 244.921 44.2319 244.748 44.4049C244.575 44.5779 244.234 44.752 243.535 44.752V46.752ZM247.095 43.192V33.976H245.095V43.192H247.095ZM247.095 33.976C247.095 32.9685 246.842 32.0292 246.162 31.3489C245.482 30.6685 244.542 30.416 243.535 30.416V32.416C244.234 32.416 244.575 32.5901 244.748 32.7631C244.921 32.9361 245.095 33.2768 245.095 33.976H247.095ZM243.535 30.416H233.103V32.416H243.535V30.416ZM233.103 30.416C232.07 30.416 231.264 30.0824 230.61 29.4289L229.196 30.8431C230.249 31.8962 231.576 32.416 233.103 32.416V30.416ZM230.61 29.4289L228.562 27.3809L227.148 28.7951L229.196 30.8431L230.61 29.4289ZM228.562 27.3809C227.902 26.7203 227.575 25.9316 227.575 24.952H225.575C225.575 26.447 226.102 27.749 227.148 28.7951L228.562 27.3809ZM227.575 24.952V11.064H225.575V24.952H227.575ZM227.575 11.064C227.575 10.0834 227.903 9.26371 228.579 8.55365L227.131 7.17434C226.1 8.25628 225.575 9.56989 225.575 11.064H227.575ZM228.562 8.57111L230.61 6.5231L229.196 5.10889L227.148 7.15689L228.562 8.57111ZM230.61 6.52311C231.271 5.86256 232.059 5.536 233.039 5.536V3.536C231.544 3.536 230.242 4.06277 229.196 5.10889L230.61 6.52311ZM233.039 5.536H245.455V3.536H233.039V5.536ZM245.455 5.536C246.419 5.536 247.202 5.87183 247.867 6.56965L249.315 5.19034C248.273 4.09616 246.966 3.536 245.455 3.536V5.536ZM247.884 6.5871L249.932 8.6351L251.346 7.22089L249.298 5.17289L247.884 6.5871ZM249.932 8.6351C250.592 9.29565 250.919 10.0844 250.919 11.064H252.919C252.919 9.56896 252.392 8.26701 251.346 7.22089L249.932 8.6351ZM250.919 11.064V17.976H252.919V11.064H250.919ZM250.919 17.976C250.919 18.6752 250.745 19.0159 250.572 19.1889C250.399 19.3619 250.058 19.536 249.359 19.536V21.536C250.366 21.536 251.306 21.2835 251.986 20.6031C252.666 19.9228 252.919 18.9835 252.919 17.976H250.919ZM249.359 19.536H248.655V21.536H249.359V19.536Z" fill="black"/>
</g>
<defs>
<filter id="filter0_f_201_5" x="0.200001" y="0.536011" width="255.719" height="55.0399" filterUnits="userSpaceOnUse" color-interpolation-filters="sRGB">
<feFlood flood-opacity="0" result="BackgroundImageFix"/>
<feBlend mode="normal" in="SourceGraphic" in2="BackgroundImageFix" result="shape"/>
<feGaussianBlur stdDeviation="2" result="effect1_foregroundBlur_201_5"/>
</filter>
</defs>
</svg>
